<svg width="33" height="32" viewBox="0 0 33 32" fill="none" xmlns="http://www.w3.org/2000/svg">
<g clip-path="url(#clip0_506_3713)">
<path d="M28.6667 12.1V12C28.6648 10.1441 27.9266 8.36477 26.6143 7.05245C25.302 5.74012 23.5227 5.00199 21.6667 5H20.6667C20.1363 5 19.6276 5.21071 19.2525 5.58579C18.8775 5.96086 18.6667 6.46957 18.6667 7V22H16.6667V9C16.6667 8.73478 16.5614 8.48043 16.3739 8.29289C16.1863 8.10536 15.932 8 15.6667 8H2.66675C2.13632 8 1.62761 8.21071 1.25253 8.58579C0.877462 8.96086 0.666748 9.46957 0.666748 10L0.666748 23C0.667661 23.8121 0.915742 24.6047 1.37801 25.2724C1.84027 25.9401 2.49482 26.4513 3.25464 26.738C4.01445 27.0246 4.84353 27.0733 5.63165 26.8774C6.41977 26.6815 7.12959 26.2503 7.66675 25.6412C8.14689 26.1867 8.76654 26.591 9.45917 26.8109C10.1518 27.0307 10.8912 27.0577 11.598 26.889C12.3048 26.7202 12.9523 26.3621 13.4709 25.8531C13.9896 25.3442 14.3598 24.7035 14.5417 24H24.7917C25.0336 24.9445 25.612 25.7681 26.4184 26.3162C27.2247 26.8642 28.2035 27.0988 29.1706 26.976C30.1378 26.8532 31.0269 26.3814 31.6707 25.6492C32.3144 24.917 32.6687 23.9749 32.6667 23V17C32.6653 15.8478 32.2667 14.7313 31.5381 13.8387C30.8095 12.9461 29.7954 12.3321 28.6667 12.1ZM20.6667 7H21.6667C22.9928 7 24.2646 7.52678 25.2023 8.46447C26.14 9.40215 26.6667 10.6739 26.6667 12V13C26.6667 13.2652 26.7721 13.5196 26.9596 13.7071C27.1472 13.8946 27.4015 14 27.6667 14C28.4624 14 29.2255 14.3161 29.7881 14.8787C30.3507 15.4413 30.6667 16.2043 30.6667 17V19.5387C30.0596 19.1851 29.3694 18.9991 28.6667 19C27.7799 19.0008 26.9185 19.2958 26.2173 19.8387C25.516 20.3815 25.0147 21.1417 24.7917 22H20.6667V7ZM14.6667 10V22H14.5417C14.3598 21.2965 13.9896 20.6558 13.4709 20.1468C12.9523 19.6379 12.3048 19.2798 11.598 19.111C10.8912 18.9423 10.1518 18.9693 9.45917 19.1891C8.76654 19.409 8.14689 19.8133 7.66675 20.3587C7.05748 19.6638 6.22574 19.2021 5.31373 19.0525C4.40172 18.9029 3.46607 19.0748 2.66675 19.5387V10H14.6667ZM4.66675 25C4.27119 25 3.88451 24.8827 3.55561 24.6629C3.22671 24.4432 2.97036 24.1308 2.81899 23.7654C2.66761 23.3999 2.62801 22.9978 2.70518 22.6098C2.78235 22.2219 2.97283 21.8655 3.25253 21.5858C3.53224 21.3061 3.88861 21.1156 4.27657 21.0384C4.66453 20.9613 5.06666 21.0009 5.43212 21.1522C5.79757 21.3036 6.10992 21.56 6.32969 21.8889C6.54945 22.2178 6.66675 22.6044 6.66675 23C6.66675 23.5304 6.45603 24.0391 6.08096 24.4142C5.70589 24.7893 5.19718 25 4.66675 25ZM10.6667 25C10.2712 25 9.88451 24.8827 9.55561 24.6629C9.22671 24.4432 8.97036 24.1308 8.81899 23.7654C8.66761 23.3999 8.62801 22.9978 8.70518 22.6098C8.78235 22.2219 8.97283 21.8655 9.25253 21.5858C9.53224 21.3061 9.88861 21.1156 10.2766 21.0384C10.6645 20.9613 11.0667 21.0009 11.4321 21.1522C11.7976 21.3036 12.1099 21.56 12.3297 21.8889C12.5494 22.2178 12.6667 22.6044 12.6667 23C12.6667 23.5304 12.456 24.0391 12.081 24.4142C11.7059 24.7893 11.1972 25 10.6667 25ZM28.6667 25C28.2712 25 27.8845 24.8827 27.5556 24.6629C27.2267 24.4432 26.9704 24.1308 26.819 23.7654C26.6676 23.3999 26.628 22.9978 26.7052 22.6098C26.7823 22.2219 26.9728 21.8655 27.2525 21.5858C27.5322 21.3061 27.8886 21.1156 28.2766 21.0384C28.6645 20.9613 29.0667 21.0009 29.4321 21.1522C29.7976 21.3036 30.1099 21.56 30.3297 21.8889C30.5494 22.2178 30.6667 22.6044 30.6667 23C30.6667 23.5304 30.456 24.0391 30.081 24.4142C29.7059 24.7893 29.1972 25 28.6667 25Z" fill="black"/>
</g>
<defs>
<clipPath id="clip0_506_3713">
<rect width="32" height="32" fill="white" transform="translate(0.666748)"/>
</clipPath>
</defs>
</svg>
