<svg width="32" height="32" viewBox="0 0 32 32" fill="none" xmlns="http://www.w3.org/2000/svg">
<path d="M28 7H16C15.4533 7 15 6.54667 15 6C15 5.45333 15.4533 5 16 5H28C28.5467 5 29 5.45333 29 6C29 6.54667 28.5467 7 28 7Z" fill="black"/>
<path d="M28 13.6666H16C15.4533 13.6666 15 13.2133 15 12.6666C15 12.12 15.4533 11.6666 16 11.6666H28C28.5467 11.6666 29 12.12 29 12.6666C29 13.2133 28.5467 13.6666 28 13.6666Z" fill="black"/>
<path d="M28 20.3334H4C3.45333 20.3334 3 19.88 3 19.3334C3 18.7867 3.45333 18.3334 4 18.3334H28C28.5467 18.3334 29 18.7867 29 19.3334C29 19.88 28.5467 20.3334 28 20.3334Z" fill="black"/>
<path d="M28 27H4C3.45333 27 3 26.5467 3 26C3 25.4533 3.45333 25 4 25H28C28.5467 25 29 25.4533 29 26C29 26.5467 28.5467 27 28 27Z" fill="black"/>
</svg>
