<svg width="32" height="32" viewBox="0 0 32 32" fill="none" xmlns="http://www.w3.org/2000/svg">
<path d="M25.3334 23.6667H6.66669C3.44002 23.6667 1.66669 21.8934 1.66669 18.6667V13.3334C1.66669 10.1067 3.44002 8.33337 6.66669 8.33337H25.3334C28.56 8.33337 30.3334 10.1067 30.3334 13.3334V18.6667C30.3334 21.8934 28.56 23.6667 25.3334 23.6667ZM6.66669 10.3334C4.56002 10.3334 3.66669 11.2267 3.66669 13.3334V18.6667C3.66669 20.7734 4.56002 21.6667 6.66669 21.6667H25.3334C27.44 21.6667 28.3334 20.7734 28.3334 18.6667V13.3334C28.3334 11.2267 27.44 10.3334 25.3334 10.3334H6.66669Z" fill="black"/>
<path d="M24 17C23.4533 17 23 16.5467 23 16V9.33337C23 8.78671 23.4533 8.33337 24 8.33337C24.5467 8.33337 25 8.78671 25 9.33337V16C25 16.5467 24.5467 17 24 17Z" fill="black"/>
<path d="M8 15.6667C7.45333 15.6667 7 15.2134 7 14.6667V9.33337C7 8.78671 7.45333 8.33337 8 8.33337C8.54667 8.33337 9 8.78671 9 9.33337V14.6667C9 15.2134 8.54667 15.6667 8 15.6667Z" fill="black"/>
<path d="M13.3333 17C12.7733 17 12.3333 16.5467 12.3333 15.9867L12.4 9.32004C12.4 8.77337 12.8533 8.33337 13.4 8.33337C13.4 8.33337 13.4 8.33337 13.4133 8.33337C13.96 8.33337 14.4133 8.78671 14.4 9.34671L14.3333 16.0134C14.3333 16.56 13.88 17 13.3333 17Z" fill="black"/>
<path d="M18.6667 14.3334C18.12 14.3334 17.6667 13.88 17.6667 13.3334V9.33337C17.6667 8.78671 18.12 8.33337 18.6667 8.33337C19.2134 8.33337 19.6667 8.78671 19.6667 9.33337V13.3334C19.6667 13.88 19.2134 14.3334 18.6667 14.3334Z" fill="black"/>
</svg>
