<svg width="32" height="32" viewBox="0 0 32 32" fill="none" xmlns="http://www.w3.org/2000/svg">
<path d="M2.66673 30.3333C2.40006 30.3333 2.14669 30.2267 1.96002 30.04C1.70669 29.7867 1.60009 29.4133 1.69342 29.0667L3.37343 22.7867C2.25343 20.7067 1.66673 18.36 1.66673 15.9867C1.66673 8.07999 8.0934 1.65332 16.0001 1.65332C23.9067 1.65332 30.3334 8.07999 30.3334 15.9867C30.3334 23.8933 23.9067 30.32 16.0001 30.32C13.5867 30.32 11.2268 29.72 9.1201 28.5733L2.93341 30.2933C2.84008 30.32 2.76006 30.3333 2.66673 30.3333ZM9.2534 26.5067C9.42673 26.5067 9.60007 26.56 9.76007 26.64C11.6401 27.7467 13.8001 28.3333 16.0001 28.3333C22.8001 28.3333 28.3334 22.8 28.3334 16C28.3334 9.2 22.8001 3.66667 16.0001 3.66667C9.20006 3.66667 3.66673 9.2 3.66673 16C3.66673 18.1733 4.24005 20.2933 5.32005 22.16C5.45338 22.3867 5.49341 22.6667 5.42674 22.92L4.09341 27.9067L9.00006 26.5467C9.08006 26.52 9.1734 26.5067 9.2534 26.5067Z" fill="black"/>
<path d="M19.6533 23.6801C18.8266 23.6801 17.9733 23.4934 17.08 23.1067C16.24 22.7467 15.4 22.2667 14.5866 21.6667C13.7866 21.0801 13 20.4134 12.28 19.6934C11.56 18.96 10.8933 18.1867 10.3066 17.3867C9.7066 16.5467 9.22659 15.72 8.87992 14.9067C8.50659 14.0267 8.31995 13.1601 8.31995 12.3334C8.31995 11.7467 8.42659 11.1867 8.62659 10.6667C8.83992 10.1201 9.1866 9.62671 9.63993 9.20005C10.4933 8.36005 11.72 8.05341 12.6933 8.52008C13.0267 8.66674 13.3066 8.90674 13.52 9.22674L15.0666 11.4C15.2266 11.6134 15.3466 11.84 15.44 12.0667C15.5466 12.3334 15.6133 12.6001 15.6133 12.8534C15.6133 13.2001 15.52 13.5467 15.3333 13.8534C15.2133 14.0534 15.0399 14.2934 14.8133 14.5201L14.6399 14.7067C14.7199 14.8134 14.8133 14.9467 14.9599 15.1067C15.2399 15.4267 15.5466 15.7734 15.8799 16.1067C16.2133 16.4267 16.5466 16.7467 16.8799 17.0267C17.0399 17.16 17.1733 17.2667 17.28 17.3334L17.4666 17.1467C17.7066 16.9067 17.9466 16.7201 18.1866 16.6001C18.6266 16.3201 19.3066 16.2534 19.9066 16.5067C20.12 16.5867 20.3333 16.7067 20.5599 16.8667L22.7867 18.44C23.0933 18.6534 23.3333 18.9467 23.4933 19.28C23.6266 19.6134 23.68 19.9067 23.68 20.2134C23.68 20.6134 23.5866 21.0001 23.4133 21.3734C23.24 21.7201 23.0399 22.0267 22.7999 22.3067C22.3733 22.7734 21.88 23.1201 21.3466 23.3467C20.8133 23.5734 20.2399 23.6801 19.6533 23.6801ZM11.7199 10.32C11.6399 10.32 11.3733 10.32 11.04 10.6534C10.7867 10.8934 10.6133 11.1467 10.4933 11.4267C10.3733 11.7067 10.3199 12.0267 10.3199 12.3467C10.3199 12.9067 10.4533 13.5067 10.7199 14.1467C10.9999 14.8134 11.4133 15.5201 11.92 16.2267C12.44 16.9334 13.0266 17.6401 13.68 18.2934C14.3333 18.9334 15.0266 19.5334 15.7466 20.0667C16.44 20.5734 17.1466 20.9734 17.8533 21.28C18.8666 21.72 19.7999 21.8267 20.5599 21.5067C20.8266 21.4001 21.0666 21.2134 21.3066 20.9734C21.4266 20.8401 21.52 20.7067 21.6 20.5334C21.64 20.44 21.6666 20.3334 21.6666 20.24C21.6666 20.2134 21.6666 20.1734 21.6266 20.0934L19.3999 18.5467C19.3066 18.4801 19.2133 18.4267 19.1333 18.4C19.0799 18.4267 19 18.4667 18.8533 18.6134L18.3466 19.1201C17.96 19.5067 17.3466 19.6134 16.8533 19.44L16.6133 19.3334C16.3067 19.1734 15.9599 18.9334 15.5733 18.6001C15.1999 18.2801 14.84 17.9467 14.4533 17.5734C14.08 17.1867 13.7466 16.8267 13.4266 16.4534C13.08 16.0401 12.84 15.7067 12.68 15.4267L12.5333 15.0801C12.4933 14.9467 12.4799 14.8001 12.4799 14.6667C12.4799 14.2934 12.6133 13.96 12.8667 13.6934L13.3733 13.1734C13.52 13.0267 13.5733 12.9467 13.6 12.8934C13.56 12.8001 13.5066 12.7201 13.44 12.6267L11.8799 10.4267L11.7199 10.32Z" fill="black"/>
</svg>
